<mxfile host="app.diagrams.net" modified="2024-02-25T12:38:50.939Z" agent="Mozilla/5.0 (Windows NT 10.0; Win64; x64) AppleWebKit/537.36 (KHTML, like Gecko) Chrome/121.0.0.0 Safari/537.36 Edg/121.0.0.0" version="23.1.6" etag="K7Xp7Mtueqzg39WBGY6r" type="github">
  <diagram name="Page-1" id="oavqcy8ySbokmruesvk7">
    <mxGraphModel>
      <root>
        <mxCell id="0" />
        <mxCell id="1" parent="0" />
      </root>
    </mxGraphModel>
  </diagram>
</mxfile>
